<svg width="124.2688232421875px" height="122px" xmlns="http://www.w3.org/2000/svg" viewBox="187.86558837890624 14 124.2688232421875 122" style="background: rgb(253, 253, 253);" preserveAspectRatio="xMidYMid"><defs><filter id="editing-vintage" x="-100%" y="-100%" width="300%" height="300%"><feConvolveMatrix in="SourceGraphic" result="extrude" order="9,9" divisor="1" kernelMatrix="1,0,0,0,0,0,0,0,0,0,1,0,0,0,0,0,0,0,0,0,1,0,0,0,0,0,0,0,0,0,1,0,0,0,0,0,0,0,0,0,1,0,0,0,0,0,0,0,0,0,1,0,0,0,0,0,0,0,0,0,1,0,0,0,0,0,0,0,0,0,1,0,0,0,0,0,0,0,0,0,1"> </feConvolveMatrix><feFlood flood-color="#e5dceb" result="flood-extrude"></feFlood><feComposite operator="in" in="flood-extrude" in2="extrude" result="extrude-color"></feComposite><feOffset dx="5" dy="5" in="extrude-color" result="extrude-offset"></feOffset><feColorMatrix in="SourceGraphic" result="stroke" type="matrix" values="0 0 0 0 0 0 0 0 0 0 0 0 0 0 0 0 1 0 0 0 "></feColorMatrix><feColorMatrix in="SourceGraphic" result="fill" type="matrix" values="0 0 0 0 0 0 0 0 0 0 0 0 0 0 0 1 0 0 1 0 "></feColorMatrix><feConvolveMatrix in="stroke" result="inner-shadow" order="5,5" divisor="1" kernelMatrix="1 0 0 0 0 0 1 0 0 0 0 0 1 0 0 0 0 0 1 0 0 0 0 0 1 "></feConvolveMatrix><feOffset dx="1" dy="1" in="inner-shadow" result="offset"></feOffset><feComposite operator="in" in="offset" in2="SourceAlpha" result="comp"></feComposite><feFlood flood-color="#a00d1e" result="flood3"></feFlood><feComposite operator="in" in="flood3" in2="comp" result="comp2"></feComposite><feColorMatrix in="comp2" result="comp3" type="matrix" values="1 0 0 0 0 0 1 0 0 0 0 0 1 0 0 0 0 0 0.5 0 "></feColorMatrix><feFlood flood-color="#ac85b6" result="flood1"></feFlood><feComposite operator="in" in="flood1" in2="fill" result="fill2"></feComposite><feFlood flood-color="#fff" result="flood2"></feFlood><feComposite operator="in" in="flood2" in2="stroke" result="stroke2"></feComposite><feMerge result="obj"><feMergeNode in="extrude-offset"></feMergeNode><feMergeNode in="fill2"></feMergeNode><feMergeNode in="comp3"></feMergeNode></feMerge><feConvolveMatrix in="SourceAlpha" result="shadow" order="9,9" divisor="1" kernelMatrix="1,0,0,0,0,0,0,0,0,0,1,0,0,0,0,0,0,0,0,0,1,0,0,0,0,0,0,0,0,0,1,0,0,0,0,0,0,0,0,0,1,0,0,0,0,0,0,0,0,0,1,0,0,0,0,0,0,0,0,0,1,0,0,0,0,0,0,0,0,0,1,0,0,0,0,0,0,0,0,0,1"></feConvolveMatrix><feOffset dx="15" dy="15" in="shadow" result="shadow-offset"></feOffset><feFlood flood-color="#7559be" result="flood-shadow"></feFlood><feComposite operator="in" in="flood-shadow" in2="shadow-offset" result="shadow-color"></feComposite><feMerge><feMergeNode in="shadow-color"></feMergeNode><feMergeNode in="obj"></feMergeNode></feMerge></filter></defs><g transform="translate(-9,-9)"><g filter="url(#editing-vintage)"><g transform="translate(214.92912101745605, 97.36999893188477)"><path d="M29.18 1.28L29.18 1.28L29.18 1.28Q20.99 1.28 20.22-10.37L20.22-10.37L9.22-10.37L9.22-10.37Q7.94-7.42 7.04-4.86L7.04-4.86L5.38 0L-3.58 0L16.58-42.24L30.34-42.24L33.02-11.14L33.02-11.14Q33.66-4.42 36.22-2.43L36.22-2.43L36.22-2.43Q34.37 1.28 29.18 1.28ZM14.72-23.17L11.20-15.04L20.03-15.04L19.26-31.49L19.26-33.22L14.72-23.17ZM51.78 0.83L47.68 0.70L47.68 0.70Q45.70 0.64 43.62 0.64L43.62 0.64L43.62 0.64Q41.54 0.64 39.49 0.90L39.49 0.90L39.49 0.90Q39.23-0.13 39.23-1.34L39.23-1.34L39.23-1.34Q39.23-3.90 40.67-5.44L40.67-5.44L40.67-5.44Q42.11-6.98 44.35-6.98L44.35-6.98L47.81-6.98L53.18-31.17L53.18-31.17Q51.20-29.18 47.10-29.18L47.10-29.18L47.10-29.18Q45.06-29.18 43.46-31.10L43.46-31.10L43.46-31.10Q41.86-32.90 41.60-35.46L41.60-35.46L41.60-35.46Q51.07-37.12 65.22-43.46L65.22-43.46L67.26-41.02L61.06-6.98L62.66-6.98L62.66-6.98Q66.50-6.98 68.48-7.68L68.48-7.68L68.48-7.68Q69.31-6.27 69.31-3.97L69.31-3.97L69.31-3.97Q69.31-1.66 67.62-0.29L67.62-0.29L67.62-0.29Q65.92 1.09 63.10 1.09L63.10 1.09L63.10 1.09Q57.41 1.09 51.78 0.83L51.78 0.83Z" fill="#f00" stroke="#0f0" stroke-width="1.8"></path></g></g><g><g transform="translate(215.13494300842285, 97.36999893188477)"><path d="M29.18 1.28L29.18 1.28L29.18 1.28Q20.99 1.28 20.22-10.37L20.22-10.37L9.22-10.37L9.22-10.37Q7.94-7.42 7.04-4.86L7.04-4.86L5.38 0L-3.58 0L16.58-42.24L30.34-42.24L33.02-11.14L33.02-11.14Q33.66-4.42 36.22-2.43L36.22-2.43L36.22-2.43Q34.37 1.28 29.18 1.28ZM14.72-23.17L11.20-15.04L20.03-15.04L19.26-31.49L19.26-33.22L14.72-23.17ZM51.78 0.83L47.68 0.70L47.68 0.70Q45.70 0.64 43.62 0.64L43.62 0.64L43.62 0.64Q41.54 0.64 39.49 0.90L39.49 0.90L39.49 0.90Q39.23-0.13 39.23-1.34L39.23-1.34L39.23-1.34Q39.23-3.90 40.67-5.44L40.67-5.44L40.67-5.44Q42.11-6.98 44.35-6.98L44.35-6.98L47.81-6.98L53.18-31.17L53.18-31.17Q51.20-29.18 47.10-29.18L47.10-29.18L47.10-29.18Q45.06-29.18 43.46-31.10L43.46-31.10L43.46-31.10Q41.86-32.90 41.60-35.46L41.60-35.46L41.60-35.46Q51.07-37.12 65.22-43.46L65.22-43.46L67.26-41.02L61.06-6.98L62.66-6.98L62.66-6.98Q66.50-6.98 68.48-7.68L68.48-7.68L68.48-7.68Q69.31-6.27 69.31-3.97L69.31-3.97L69.31-3.97Q69.31-1.66 67.62-0.29L67.62-0.29L67.62-0.29Q65.92 1.09 63.10 1.09L63.10 1.09L63.10 1.09Q57.41 1.09 51.78 0.83L51.78 0.83Z" fill="none" stroke="#c0bbdd" stroke-width="2.1"></path></g></g></g><style>text {
  font-size: 64px;
  font-family: Arial Black;
  dominant-baseline: central;
  text-anchor: middle;
}</style></svg>