<svg width="124.2875px" height="122px" xmlns="http://www.w3.org/2000/svg" viewBox="187.85625 14 124.2875 122" style="background: rgb(253, 253, 253);" preserveAspectRatio="xMidYMid"><defs><filter id="editing-vintage" x="-100%" y="-100%" width="300%" height="300%"><feConvolveMatrix in="SourceGraphic" result="extrude" order="9,9" divisor="1" kernelMatrix="1,0,0,0,0,0,0,0,0,0,1,0,0,0,0,0,0,0,0,0,1,0,0,0,0,0,0,0,0,0,1,0,0,0,0,0,0,0,0,0,1,0,0,0,0,0,0,0,0,0,1,0,0,0,0,0,0,0,0,0,1,0,0,0,0,0,0,0,0,0,1,0,0,0,0,0,0,0,0,0,1"> </feConvolveMatrix><feFlood flood-color="#e5dceb" result="flood-extrude"></feFlood><feComposite operator="in" in="flood-extrude" in2="extrude" result="extrude-color"></feComposite><feOffset dx="5" dy="5" in="extrude-color" result="extrude-offset"></feOffset><feColorMatrix in="SourceGraphic" result="stroke" type="matrix" values="0 0 0 0 0 0 0 0 0 0 0 0 0 0 0 0 1 0 0 0 "></feColorMatrix><feColorMatrix in="SourceGraphic" result="fill" type="matrix" values="0 0 0 0 0 0 0 0 0 0 0 0 0 0 0 1 0 0 1 0 "></feColorMatrix><feConvolveMatrix in="stroke" result="inner-shadow" order="5,5" divisor="1" kernelMatrix="1 0 0 0 0 0 1 0 0 0 0 0 1 0 0 0 0 0 1 0 0 0 0 0 1 "></feConvolveMatrix><feOffset dx="1" dy="1" in="inner-shadow" result="offset"></feOffset><feComposite operator="in" in="offset" in2="SourceAlpha" result="comp"></feComposite><feFlood flood-color="#a00d1e" result="flood3"></feFlood><feComposite operator="in" in="flood3" in2="comp" result="comp2"></feComposite><feColorMatrix in="comp2" result="comp3" type="matrix" values="1 0 0 0 0 0 1 0 0 0 0 0 1 0 0 0 0 0 0.5 0 "></feColorMatrix><feFlood flood-color="#ac85b6" result="flood1"></feFlood><feComposite operator="in" in="flood1" in2="fill" result="fill2"></feComposite><feFlood flood-color="#fff" result="flood2"></feFlood><feComposite operator="in" in="flood2" in2="stroke" result="stroke2"></feComposite><feMerge result="obj"><feMergeNode in="extrude-offset"></feMergeNode><feMergeNode in="fill2"></feMergeNode><feMergeNode in="comp3"></feMergeNode></feMerge><feConvolveMatrix in="SourceAlpha" result="shadow" order="9,9" divisor="1" kernelMatrix="1,0,0,0,0,0,0,0,0,0,1,0,0,0,0,0,0,0,0,0,1,0,0,0,0,0,0,0,0,0,1,0,0,0,0,0,0,0,0,0,1,0,0,0,0,0,0,0,0,0,1,0,0,0,0,0,0,0,0,0,1,0,0,0,0,0,0,0,0,0,1,0,0,0,0,0,0,0,0,0,1"></feConvolveMatrix><feOffset dx="15" dy="15" in="shadow" result="shadow-offset"></feOffset><feFlood flood-color="#7559be" result="flood-shadow"></feFlood><feComposite operator="in" in="flood-shadow" in2="shadow-offset" result="shadow-color"></feComposite><feMerge><feMergeNode in="shadow-color"></feMergeNode><feMergeNode in="obj"></feMergeNode></feMerge></filter></defs><g transform="translate(-9,-9)"><g filter="url(#editing-vintage)"><g transform="translate(212.4950034916401, 97.39999961853027)"><path d="M0.45-0.32L0.45-0.32L8.51-42.24L8.51-42.24Q16.06-42.88 20.93-42.88L20.93-42.88L20.93-42.88Q25.79-42.88 28.93-42.46L28.93-42.46L28.93-42.46Q32.06-42.05 34.18-40.96L34.18-40.96L34.18-40.96Q38.40-38.91 38.40-33.28L38.40-33.28L38.40-33.28Q38.40-30.02 35.58-27.26L35.58-27.26L35.58-27.26Q32.96-24.77 30.08-24.19L30.08-24.19L30.08-24.19Q33.15-23.68 35.33-21.38L35.33-21.38L35.33-21.38Q37.63-18.94 37.63-15.17L37.63-15.17L37.63-15.17Q37.63-7.87 32.19-3.62L32.19-3.62L32.19-3.62Q26.75 0.64 16.06 0.64L16.06 0.64L16.06 0.64Q8.70 0.64 0.45-0.32ZM17.86-20.61L14.66-4.03L14.66-4.03Q15.23-3.97 15.36-3.97L15.36-3.97L15.94-3.97L15.94-3.97Q21.18-3.97 23.42-7.42L23.42-7.42L23.42-7.42Q25.09-10.11 25.09-15.04L25.09-15.04L25.09-15.04Q25.09-17.66 23.39-19.07L23.39-19.07L23.39-19.07Q21.70-20.48 17.86-20.61L17.86-20.61ZM27.58-33.22L27.58-33.22L27.58-33.22Q27.58-38.53 22.46-38.53L22.46-38.53L21.89-38.53L21.89-38.53Q21.63-38.53 21.25-38.46L21.25-38.46L18.69-24.96L19.33-24.96L19.33-24.96Q27.58-25.15 27.58-33.22ZM41.73-1.60L41.34-9.47L49.34-15.62L54.34-19.71L54.34-19.71Q56.90-21.89 58.75-23.81L58.75-23.81L58.75-23.81Q62.14-27.20 62.14-30.46L62.14-30.46L62.14-30.46Q62.14-32.38 60.90-33.41L60.90-33.41L60.90-33.41Q59.65-34.43 57.82-34.43L57.82-34.43L57.82-34.43Q56-34.43 54.69-34.02L54.69-34.02L54.69-34.02Q53.38-33.60 52.22-32.90L52.22-32.90L52.22-32.90Q49.79-31.30 48.64-28.86L48.64-28.86L48.64-28.86Q47.04-28.93 45.98-30.27L45.98-30.27L45.98-30.27Q44.93-31.62 44.93-33.57L44.93-33.57L44.93-33.57Q44.93-35.52 46.14-37.34L46.14-37.34L46.14-37.34Q47.36-39.17 49.54-40.58L49.54-40.58L49.54-40.58Q54.27-43.52 60.77-43.52L60.77-43.52L60.77-43.52Q67.26-43.52 70.91-40.70L70.91-40.70L70.91-40.70Q74.56-37.89 74.56-33.09L74.56-33.09L74.56-33.09Q74.56-29.50 72.80-26.24L72.80-26.24L72.80-26.24Q71.04-22.98 66.37-19.65L66.37-19.65L59.46-14.78L55.30-12.03L49.98-8.77L52.22-8.51L52.22-8.51Q53.76-8.32 56.45-8.32L56.45-8.32L56.45-8.32Q59.14-8.32 61.38-8.61L61.38-8.61L61.38-8.61Q63.62-8.90 65.54-9.47L65.54-9.47L65.54-9.47Q69.76-10.62 71.10-12.22L71.10-12.22L71.10-12.22Q71.81-11.71 72.35-10.40L72.35-10.40L72.35-10.40Q72.90-9.09 72.90-7.49L72.90-7.49L72.90-7.49Q72.90-2.69 69.25-0.70L69.25-0.70L69.25-0.70Q65.60 1.28 58.11 1.28L58.11 1.28L58.11 1.28Q54.21 1.28 49.02 0.16L49.02 0.16L49.02 0.16Q43.84-0.96 41.73-1.60L41.73-1.60Z" fill="#f00" stroke="#0f0" stroke-width="1.8"></path></g></g><g><g transform="translate(212.49503782391548, 97.40000343322754)"><path d="M0.45-0.32L0.45-0.32L8.51-42.24L8.51-42.24Q16.06-42.88 20.93-42.88L20.93-42.88L20.93-42.88Q25.79-42.88 28.93-42.46L28.93-42.46L28.93-42.46Q32.06-42.05 34.18-40.96L34.18-40.96L34.18-40.96Q38.40-38.91 38.40-33.28L38.40-33.28L38.40-33.28Q38.40-30.02 35.58-27.26L35.58-27.26L35.58-27.26Q32.96-24.77 30.08-24.19L30.08-24.19L30.08-24.19Q33.15-23.68 35.33-21.38L35.33-21.38L35.33-21.38Q37.63-18.94 37.63-15.17L37.63-15.17L37.63-15.17Q37.63-7.87 32.19-3.62L32.19-3.62L32.19-3.62Q26.75 0.64 16.06 0.64L16.06 0.64L16.06 0.64Q8.70 0.64 0.45-0.32ZM17.86-20.61L14.66-4.03L14.66-4.03Q15.23-3.97 15.36-3.97L15.36-3.97L15.94-3.97L15.94-3.97Q21.18-3.97 23.42-7.42L23.42-7.42L23.42-7.42Q25.09-10.11 25.09-15.04L25.09-15.04L25.09-15.04Q25.09-17.66 23.39-19.07L23.39-19.07L23.39-19.07Q21.70-20.48 17.86-20.61L17.86-20.61ZM27.58-33.22L27.58-33.22L27.58-33.22Q27.58-38.53 22.46-38.53L22.46-38.53L21.89-38.53L21.89-38.53Q21.63-38.53 21.25-38.46L21.25-38.46L18.69-24.96L19.33-24.96L19.33-24.96Q27.58-25.15 27.58-33.22ZM41.73-1.60L41.34-9.47L49.34-15.62L54.34-19.71L54.34-19.71Q56.90-21.89 58.75-23.81L58.75-23.81L58.75-23.81Q62.14-27.20 62.14-30.46L62.14-30.46L62.14-30.46Q62.14-32.38 60.90-33.41L60.90-33.41L60.90-33.41Q59.65-34.43 57.82-34.43L57.82-34.43L57.82-34.43Q56-34.43 54.69-34.02L54.69-34.02L54.69-34.02Q53.38-33.60 52.22-32.90L52.22-32.90L52.22-32.90Q49.79-31.30 48.64-28.86L48.64-28.86L48.64-28.86Q47.04-28.93 45.98-30.27L45.98-30.27L45.98-30.27Q44.93-31.62 44.93-33.57L44.93-33.57L44.93-33.57Q44.93-35.52 46.14-37.34L46.14-37.34L46.14-37.34Q47.36-39.17 49.54-40.58L49.54-40.58L49.54-40.58Q54.27-43.52 60.77-43.52L60.77-43.52L60.77-43.52Q67.26-43.52 70.91-40.70L70.91-40.70L70.91-40.70Q74.56-37.89 74.56-33.09L74.56-33.09L74.56-33.09Q74.56-29.50 72.80-26.24L72.80-26.24L72.80-26.24Q71.04-22.98 66.37-19.65L66.37-19.65L59.46-14.78L55.30-12.03L49.98-8.77L52.22-8.51L52.22-8.51Q53.76-8.32 56.45-8.32L56.45-8.32L56.45-8.32Q59.14-8.32 61.38-8.61L61.38-8.61L61.38-8.61Q63.62-8.90 65.54-9.47L65.54-9.47L65.54-9.47Q69.76-10.62 71.10-12.22L71.10-12.22L71.10-12.22Q71.81-11.71 72.35-10.40L72.35-10.40L72.35-10.40Q72.90-9.09 72.90-7.49L72.90-7.49L72.90-7.49Q72.90-2.69 69.25-0.70L69.25-0.70L69.25-0.70Q65.60 1.28 58.11 1.28L58.11 1.28L58.11 1.28Q54.21 1.28 49.02 0.16L49.02 0.16L49.02 0.16Q43.84-0.96 41.73-1.60L41.73-1.60Z" fill="none" stroke="#c0bbdd" stroke-width="2.1"></path></g></g></g><style>text {
  font-size: 64px;
  font-family: Arial Black;
  dominant-baseline: central;
  text-anchor: middle;
}</style></svg>