<svg width="583.90625px" height="122px" xmlns="http://www.w3.org/2000/svg" viewBox="-41.953125 14 583.90625 122" style="background: rgba(0, 0, 0, 0);" preserveAspectRatio="xMidYMid"><defs><filter id="editing-vr"><feFlood flood-color="#f00" flood-opacity="0.7" result="c1"></feFlood><feFlood flood-color="#00f" flood-opacity="0.7" result="c3"></feFlood><feComposite operator="in" in="c1" in2="SourceAlpha" result="text-c1"></feComposite><feComposite operator="in" in="c3" in2="SourceAlpha" result="text-c3"></feComposite><feOffset in="text-c1" dx="5" dy="-1" result="text1"></feOffset><feOffset in="text-c3" dx="-5" dy="1" result="text3"></feOffset><feBlend in="SourceGraphic" in2="text1" mode="multiply" result="text4"></feBlend><feBlend in="text4" in2="text3" mode="multiply"></feBlend></filter></defs><g filter="url(#editing-vr)"><g transform="translate(42.95998978614807, 104.76000022888184)"><path d="M28.42-9.86L28.42-9.86L28.42-9.86Q29.63-8.32 29.63-5.82L29.63-5.82L29.63-5.82Q29.63-2.37 27.07-0.54L27.07-0.54L27.07-0.54Q24.51 1.28 20.48 1.28L20.48 1.28L20.48 1.28Q18.18 1.28 14.66 0.77L14.66 0.77L14.66 0.77Q7.74-0.32 5.63-0.32L5.63-0.32L5.63-0.32Q3.52-0.32 2.69-0.22L2.69-0.22L2.69-0.22Q1.86-0.13 0.51 0L0.51 0L8.38-42.24L35.97-42.24L35.97-42.24Q35.97-38.34 34.08-36.29L34.08-36.29L34.08-36.29Q32.19-34.24 28.48-34.24L28.48-34.24L28.48-34.24Q24.77-34.24 20.99-35.97L20.99-35.97L19.01-24.77L30.40-24.77L30.40-24.77Q30.40-21.38 28.74-19.49L28.74-19.49L28.74-19.49Q27.07-17.60 24.29-17.60L24.29-17.60L24.29-17.60Q21.50-17.60 19.78-18.24L19.78-18.24L19.78-18.24Q18.05-18.88 17.86-19.07L17.86-19.07L15.55-6.98L15.55-6.98Q17.09-6.78 19.97-6.78L19.97-6.78L19.97-6.78Q24.90-6.78 28.42-9.86ZM62.59 1.28L62.59 1.28L62.59 1.28Q54.85 1.28 54.85-4.74L54.85-4.74L54.85-4.74Q54.91-6.40 55.42-9.22L55.42-9.22L56.58-15.10L56.58-15.10Q58.30-23.42 58.30-25.28L58.30-25.28L58.30-25.28Q58.30-28.99 56.13-28.99L56.13-28.99L56.13-28.99Q52.48-28.99 50.56-19.46L50.56-19.46L46.78 0L33.92 1.28L40.58-32.70L51.07-33.92L50.05-27.65L50.05-27.65Q53.06-33.92 62.27-33.92L62.27-33.92L62.27-33.92Q66.75-33.92 68.64-32.03L68.64-32.03L68.64-32.03Q70.53-30.14 70.53-25.92L70.53-25.92L70.53-25.92Q70.53-21.95 68.48-12.67L68.48-12.67L68.48-12.67Q67.52-8.51 67.52-6.94L67.52-6.94L67.52-6.94Q67.52-5.38 68.38-4.48L68.38-4.48L68.38-4.48Q69.25-3.58 70.53-3.46L70.53-3.46L70.53-3.46Q69.89-1.28 67.68 0L67.68 0L67.68 0Q65.47 1.28 62.59 1.28ZM80.19-26.75L80.19-26.75L80.19-26.75Q82.37-29.82 85.66-31.87L85.66-31.87L85.66-31.87Q88.96-33.92 92.99-33.92L92.99-33.92L92.99-33.92Q97.02-33.92 98.94-32.64L98.94-32.64L111.49-33.92L107.14-9.34L107.14-9.34Q104.90 3.20 100.16 8.13L100.16 8.13L100.16 8.13Q95.62 12.80 86.78 12.80L86.78 12.80L86.78 12.80Q80.06 12.80 76.22 10.69L76.22 10.69L76.22 10.69Q72.38 8.58 72.38 5.06L72.38 5.06L72.38 5.06Q72.38 2.43 74.37 0.93L74.37 0.93L74.37 0.93Q76.35-0.58 79.42-0.58L79.42-0.58L79.42-0.58Q82.11-0.58 84.16 0.64L84.16 0.64L84.16 0.64Q85.38 1.28 85.95 2.18L85.95 2.18L85.95 2.18Q84.48 3.46 84.48 5.57L84.48 5.57L84.48 5.57Q84.48 8.32 87.04 8.32L87.04 8.32L87.04 8.32Q91.33 8.32 93.76-1.79L93.76-1.79L93.76-1.79Q94.46-4.54 95.04-7.30L95.04-7.30L95.04-7.30Q92.16-3.78 85.63-3.78L85.63-3.78L85.63-3.78Q81.09-3.78 78.46-5.95L78.46-5.95L78.46-5.95Q75.84-8.13 75.84-13.25L75.84-13.25L75.84-13.25Q75.84-16.45 76.93-20.06L76.93-20.06L76.93-20.06Q78.02-23.68 80.19-26.75ZM88.51-13.06L88.51-13.06L88.51-13.06Q88.51-8.70 90.75-8.70L90.75-8.70L90.75-8.70Q92.29-8.70 93.76-10.37L93.76-10.37L93.76-10.37Q94.91-11.71 95.36-13.70L95.36-13.70L98.62-30.14L98.62-30.14Q98.30-30.21 97.98-30.34L97.98-30.34L97.98-30.34Q97.34-30.59 96.51-30.59L96.51-30.59L96.51-30.59Q92.61-30.59 90.30-24.19L90.30-24.19L90.30-24.19Q88.51-19.20 88.51-13.06ZM129.28-3.52L129.28-3.52L129.28-3.52Q127.30 1.28 120.96 1.28L120.96 1.28L120.96 1.28Q117.76 1.28 115.71-0.96L115.71-0.96L115.71-0.96Q114.05-2.82 114.05-4.93L114.05-4.93L114.05-4.93Q114.05-9.73 116.29-20.22L116.29-20.22L120.96-44.80L133.95-46.08L127.74-13.70L127.74-13.70Q126.66-8.96 126.66-7.30L126.66-7.30L126.66-7.30Q126.66-3.65 129.28-3.52ZM150.08-3.52L150.08-3.52L150.08-3.52Q148.10 1.28 141.76 1.28L141.76 1.28L141.76 1.28Q138.50 1.28 136.45-0.96L136.45-0.96L136.45-0.96Q134.72-2.94 134.72-4.93L134.72-4.93L134.72-4.93Q134.72-10.11 137.09-20.22L137.09-20.22L139.46-32.64L152.45-33.92L148.54-13.70L148.54-13.70Q147.46-8.96 147.46-7.30L147.46-7.30L147.46-7.30Q147.46-3.65 150.08-3.52ZM140.61-41.54L140.61-41.54L140.61-41.54Q140.61-44.03 142.69-45.38L142.69-45.38L142.69-45.38Q144.77-46.72 147.78-46.72L147.78-46.72L147.78-46.72Q150.78-46.72 152.61-45.38L152.61-45.38L152.61-45.38Q154.43-44.03 154.43-41.54L154.43-41.54L154.43-41.54Q154.43-39.04 152.42-37.76L152.42-37.76L152.42-37.76Q150.40-36.48 147.39-36.48L147.39-36.48L147.39-36.48Q144.38-36.48 142.50-37.76L142.50-37.76L142.50-37.76Q140.61-39.04 140.61-41.54ZM174.66-22.46L174.66-22.46L174.66-22.46Q175.55-24.83 175.55-26.88L175.55-26.88L175.55-26.88Q175.55-30.66 172.48-30.66L172.48-30.66L172.48-30.66Q170.88-30.66 169.57-29.22L169.57-29.22L169.57-29.22Q168.26-27.78 168.26-25.98L168.26-25.98L168.26-25.98Q168.26-24.70 169.28-23.68L169.28-23.68L169.28-23.68Q170.75-22.27 174.53-19.97L174.53-19.97L174.53-19.97Q178.30-17.66 179.74-15.78L179.74-15.78L179.74-15.78Q181.18-13.89 181.18-11.30L181.18-11.30L181.18-11.30Q181.18-8.70 179.94-6.34L179.94-6.34L179.94-6.34Q178.69-3.97 176.45-2.30L176.45-2.30L176.45-2.30Q171.65 1.28 163.97 1.28L163.97 1.28L163.97 1.28Q159.81 1.28 156.61-0.90L156.61-0.90L156.61-0.90Q153.41-3.01 153.41-5.50L153.41-5.50L153.41-5.50Q153.41-8 155.23-9.47L155.23-9.47L155.23-9.47Q157.06-10.94 159.74-10.94L159.74-10.94L159.74-10.94Q162.43-10.94 164.10-9.92L164.10-9.92L164.10-9.92Q163.26-7.81 163.26-6.40L163.26-6.40L163.26-6.40Q163.26-2.18 166.85-2.18L166.85-2.18L166.85-2.18Q168.38-2.18 169.41-3.14L169.41-3.14L169.41-3.14Q170.43-4.10 170.43-5.76L170.43-5.76L170.43-5.76Q170.43-9.02 164.93-12.48L164.93-12.48L164.93-12.48Q160.45-15.42 159.42-16.58L159.42-16.58L159.42-16.58Q157.70-18.62 157.70-21.18L157.70-21.18L157.70-21.18Q157.70-23.74 158.91-26.18L158.91-26.18L158.91-26.18Q160.13-28.61 162.37-30.34L162.37-30.34L162.37-30.34Q167.04-33.92 175.17-33.92L175.17-33.92L175.17-33.92Q179.33-33.92 181.79-32.26L181.79-32.26L181.79-32.26Q184.26-30.59 184.26-27.78L184.26-27.78L184.26-27.78Q184.26-24.96 182.56-23.36L182.56-23.36L182.56-23.36Q180.86-21.76 177.79-21.76L177.79-21.76L177.79-21.76Q175.68-21.76 174.66-22.46ZM218.82-7.10L218.82-7.10L218.82-7.10Q218.82-4.29 221.70-3.46L221.70-3.46L221.70-3.46Q220.99-1.09 218.24 0.19L218.24 0.19L218.24 0.19Q215.94 1.28 213.41 1.28L213.41 1.28L213.41 1.28Q210.88 1.28 209.57 0.61L209.57 0.61L209.57 0.61Q208.26-0.06 207.55-1.15L207.55-1.15L207.55-1.15Q206.40-2.82 206.40-5.95L206.40-5.95L206.40-5.95Q206.40-7.81 207.42-12.93L207.42-12.93L208.32-17.79L208.32-17.79Q209.41-23.36 209.41-25.41L209.41-25.41L209.41-25.41Q209.41-28.99 207.42-28.99L207.42-28.99L207.42-28.99Q204.93-28.99 203.33-25.34L203.33-25.34L203.33-25.34Q202.69-23.94 202.24-21.82L202.24-21.82L197.89 0L185.02 1.28L194.05-44.80L206.91-46.08L206.40-43.52L206.40-43.52Q204.61-33.66 203.07-30.34L203.07-30.34L203.07-30.34Q206.66-33.92 213.25-33.92L213.25-33.92L213.25-33.92Q220.22-33.92 221.50-29.31L221.50-29.31L221.50-29.31Q221.95-27.84 221.95-26.56L221.95-26.56L221.95-26.56Q221.95-25.28 221.86-24.29L221.86-24.29L221.86-24.29Q221.76-23.30 221.44-21.50L221.44-21.50L220.61-16.90L219.14-9.66L219.14-9.66Q218.82-8.19 218.82-7.10ZM250.75-4.80L250.75-4.80L250.75-4.80Q250.75-9.28 252.54-18.24L252.54-18.24L243.07-18.24L239.55 0L226.18 0L234.30-42.24L247.81-42.24L244.10-23.36L253.57-23.36L257.09-42.24L270.59-42.24L270.59-42.24Q269.70-37.50 268.54-32.19L268.54-32.19L266.37-21.76L266.37-21.76Q263.94-9.60 263.94-4.29L263.94-4.29L263.94-4.29Q263.94-2.11 264.64-0.90L264.64-0.90L264.64-0.90Q261.44 1.28 257.70 1.28L257.70 1.28L257.70 1.28Q253.95 1.28 252.35-0.51L252.35-0.51L252.35-0.51Q250.75-2.30 250.75-4.80ZM286.08 1.28L286.08 1.28L286.08 1.28Q272 1.28 272-11.97L272-11.97L272-11.97Q272-21.38 277.18-27.46L277.18-27.46L277.18-27.46Q282.69-33.92 292.22-33.92L292.22-33.92L292.22-33.92Q299.14-33.92 302.66-30.72L302.66-30.72L302.66-30.72Q306.18-27.52 306.18-20.80L306.18-20.80L306.18-20.80Q306.18-10.56 300.67-4.61L300.67-4.61L300.67-4.61Q295.30 1.28 286.08 1.28ZM287.74-26.56L287.74-26.56L287.74-26.56Q286.98-24.83 286.37-22.24L286.37-22.24L286.37-22.24Q285.76-19.65 284.99-15.55L284.99-15.55L284.99-15.55Q284.22-11.46 284.22-6.40L284.22-6.40L284.22-6.40Q284.22-4.74 284.77-3.65L284.77-3.65L284.77-3.65Q285.31-2.56 286.78-2.56L286.78-2.56L286.78-2.56Q288.26-2.56 289.18-3.26L289.18-3.26L289.18-3.26Q290.11-3.97 290.82-5.63L290.82-5.63L290.82-5.63Q292.10-8.58 293.12-14.05L293.12-14.05L293.12-14.05Q294.14-19.52 294.24-21.89L294.24-21.89L294.24-21.89Q294.34-24.26 294.34-26.02L294.34-26.02L294.34-26.02Q294.34-27.78 293.82-28.93L293.82-28.93L293.82-28.93Q293.31-30.08 291.87-30.08L291.87-30.08L291.87-30.08Q290.43-30.08 289.47-29.18L289.47-29.18L289.47-29.18Q288.51-28.29 287.74-26.56ZM330.50-2.69L330.50-2.69L330.50-2.69Q327.42 1.28 319.81 1.28L319.81 1.28L319.81 1.28Q315.84 1.28 312.96-1.12L312.96-1.12L312.96-1.12Q310.08-3.52 310.08-6.98L310.08-6.98L310.08-6.98Q310.08-8.90 310.27-9.86L310.27-9.86L314.56-32.64L327.55-33.92L322.88-9.22L322.88-9.22Q322.62-7.81 322.62-6.98L322.62-6.98L322.62-6.98Q322.62-3.26 324.86-3.26L324.86-3.26L324.86-3.26Q327.36-3.26 329.15-6.66L329.15-6.66L329.15-6.66Q329.73-7.74 329.98-9.15L329.98-9.15L334.53-32.64L347.14-33.92L342.40-8.96L342.40-8.96Q342.21-8 342.21-6.98L342.21-6.98L342.21-6.98Q342.21-5.95 342.78-4.83L342.78-4.83L342.78-4.83Q343.36-3.71 345.22-3.46L345.22-3.46L345.22-3.46Q344.83-1.92 343.49-0.90L343.49-0.90L343.49-0.90Q340.67 1.28 337.63 1.28L337.63 1.28L337.63 1.28Q334.59 1.28 332.80 0.19L332.80 0.19L332.80 0.19Q331.01-0.90 330.50-2.69ZM369.73-22.46L369.73-22.46L369.73-22.46Q370.62-24.83 370.62-26.88L370.62-26.88L370.62-26.88Q370.62-30.66 367.55-30.66L367.55-30.66L367.55-30.66Q365.95-30.66 364.64-29.22L364.64-29.22L364.64-29.22Q363.33-27.78 363.33-25.98L363.33-25.98L363.33-25.98Q363.33-24.70 364.35-23.68L364.35-23.68L364.35-23.68Q365.82-22.27 369.60-19.97L369.60-19.97L369.60-19.97Q373.38-17.66 374.82-15.78L374.82-15.78L374.82-15.78Q376.26-13.89 376.26-11.30L376.26-11.30L376.26-11.30Q376.26-8.70 375.01-6.34L375.01-6.34L375.01-6.34Q373.76-3.97 371.52-2.30L371.52-2.30L371.52-2.30Q366.72 1.28 359.04 1.28L359.04 1.28L359.04 1.28Q354.88 1.28 351.68-0.90L351.68-0.90L351.68-0.90Q348.48-3.01 348.48-5.50L348.48-5.50L348.48-5.50Q348.48-8 350.30-9.47L350.30-9.47L350.30-9.47Q352.13-10.94 354.82-10.94L354.82-10.94L354.82-10.94Q357.50-10.94 359.17-9.92L359.17-9.92L359.17-9.92Q358.34-7.81 358.34-6.40L358.34-6.40L358.34-6.40Q358.34-2.18 361.92-2.18L361.92-2.18L361.92-2.18Q363.46-2.18 364.48-3.14L364.48-3.14L364.48-3.14Q365.50-4.10 365.50-5.76L365.50-5.76L365.50-5.76Q365.50-9.02 360-12.48L360-12.48L360-12.48Q355.52-15.42 354.50-16.58L354.50-16.58L354.50-16.58Q352.77-18.62 352.77-21.18L352.77-21.18L352.77-21.18Q352.77-23.74 353.98-26.18L353.98-26.18L353.98-26.18Q355.20-28.61 357.44-30.34L357.44-30.34L357.44-30.34Q362.11-33.92 370.24-33.92L370.24-33.92L370.24-33.92Q374.40-33.92 376.86-32.26L376.86-32.26L376.86-32.26Q379.33-30.59 379.33-27.78L379.33-27.78L379.33-27.78Q379.33-24.96 377.63-23.36L377.63-23.36L377.63-23.36Q375.94-21.76 372.86-21.76L372.86-21.76L372.86-21.76Q370.75-21.76 369.73-22.46ZM407.62-10.82L407.62-10.82L407.62-10.82Q409.22-9.73 409.22-7.33L409.22-7.33L409.22-7.33Q409.22-4.93 408-3.39L408-3.39L408-3.39Q406.78-1.86 404.80-0.83L404.80-0.83L404.80-0.83Q400.70 1.28 396.29 1.28L396.29 1.28L396.29 1.28Q391.87 1.28 389.28 0.32L389.28 0.32L389.28 0.32Q386.69-0.64 384.96-2.43L384.96-2.43L384.96-2.43Q381.57-5.82 381.57-12.03L381.57-12.03L381.57-12.03Q381.57-21.70 386.82-27.58L386.82-27.58L386.82-27.58Q392.45-33.92 402.24-33.92L402.24-33.92L402.24-33.92Q408.32-33.92 411.33-31.36L411.33-31.36L411.33-31.36Q413.57-29.44 413.57-26.30L413.57-26.30L413.57-26.30Q413.57-15.04 394.11-15.04L394.11-15.04L394.11-15.04Q393.86-13.38 393.86-11.97L393.86-11.97L393.86-11.97Q393.86-9.02 395.17-7.90L395.17-7.90L395.17-7.90Q396.48-6.78 398.91-6.78L398.91-6.78L398.91-6.78Q401.34-6.78 403.94-7.90L403.94-7.90L403.94-7.90Q406.53-9.02 407.62-10.82ZM394.56-17.79L394.56-17.79L394.56-17.79Q399.10-17.79 401.73-20.61L401.73-20.61L401.73-20.61Q404.35-23.30 404.35-27.58L404.35-27.58L404.35-27.58Q404.35-29.06 403.81-29.86L403.81-29.86L403.81-29.86Q403.26-30.66 402.18-30.66L402.18-30.66L402.18-30.66Q401.09-30.66 400.16-30.24L400.16-30.24L400.16-30.24Q399.23-29.82 398.27-28.42L398.27-28.42L398.27-28.42Q395.90-25.22 394.56-17.79Z" fill="#444"></path></g></g><style>text {
  font-size: 64px;
  font-family: Arial Black;
  dominant-baseline: central;
  text-anchor: middle;
}</style></svg>